<svg width="48" height="56" viewBox="0 0 48 56" fill="none" xmlns="http://www.w3.org/2000/svg">
<g clip-path="url(#clip0_303_18278)">
<path d="M17.3244 38.748C11.3636 32.812 11.3636 23.188 17.3244 17.2521C23.2852 11.3162 32.9496 11.3162 38.9104 17.2521L47.9989 8.20145C37.0182 -2.73345 19.2155 -2.73345 8.23477 8.20145C-2.74598 19.1364 -2.74598 36.8647 8.23477 47.7996C19.2155 58.7345 37.0182 58.7345 47.9989 47.7996L38.9104 38.749C32.9496 44.6849 23.2852 44.6849 17.3244 38.749V38.748Z" fill="url(#paint0_linear_303_18278)"/>
<path d="M20.2099 20.1255C24.5774 15.7762 31.6584 15.7762 36.026 20.1255C40.3935 24.4748 40.3935 31.5262 36.026 35.8756C31.6584 40.2249 24.5774 40.2249 20.2099 35.8756L18.6019 37.4768C23.8579 42.7108 32.379 42.7108 37.6349 37.4768C42.8909 32.2428 42.8909 23.7572 37.6349 18.5232C32.379 13.2892 23.8579 13.2892 18.6019 18.5232L20.2099 20.1244V20.1255Z" fill="url(#paint1_linear_303_18278)"/>
</g>
<defs>
<linearGradient id="paint0_linear_303_18278" x1="8.23604" y1="8.20113" x2="47.8337" y2="47.9648" gradientUnits="userSpaceOnUse">
<stop stop-color="#69FCDA"/>
<stop offset="1" stop-color="#609AE8"/>
</linearGradient>
<linearGradient id="paint1_linear_303_18278" x1="37.6349" y1="37.4766" x2="18.6811" y2="18.4432" gradientUnits="userSpaceOnUse">
<stop stop-color="#69FCDA"/>
<stop offset="1" stop-color="#609AE8"/>
</linearGradient>
<clipPath id="clip0_303_18278">
<rect width="48" height="56" fill="white"/>
</clipPath>
</defs>
</svg>
